<svg xmlns="http://www.w3.org/2000/svg" viewBox="0 0 800 600" fill="none">
  <defs>
    <linearGradient id="bgGradCareer" x1="0%" y1="0%" x2="100%" y2="100%">
      <stop offset="0%" style="stop-color:#0F172A;stop-opacity:1" />
      <stop offset="100%" style="stop-color:#1E293B;stop-opacity:1" />
    </linearGradient>
    <linearGradient id="blueCareer" x1="0%" y1="0%" x2="0%" y2="100%">
      <stop offset="0%" style="stop-color:#3B82F6;stop-opacity:1" />
      <stop offset="100%" style="stop-color:#2563EB;stop-opacity:1" />
    </linearGradient>
    <linearGradient id="greenCareer" x1="0%" y1="0%" x2="100%" y2="0%">
      <stop offset="0%" style="stop-color:#10B981;stop-opacity:1" />
      <stop offset="100%" style="stop-color:#059669;stop-opacity:1" />
    </linearGradient>
    <linearGradient id="purpleCareer" x1="0%" y1="0%" x2="100%" y2="100%">
      <stop offset="0%" style="stop-color:#8B5CF6;stop-opacity:1" />
      <stop offset="100%" style="stop-color:#6366F1;stop-opacity:1" />
    </linearGradient>
  </defs>

  <rect width="800" height="600" fill="url(#bgGradCareer)"/>

  <g opacity="0.05">
    <line x1="100" y1="550" x2="700" y2="50" stroke="#3B82F6" stroke-width="2"/>
    <line x1="150" y1="550" x2="700" y2="100" stroke="#10B981" stroke-width="2"/>
    <line x1="200" y1="550" x2="700" y2="150" stroke="#8B5CF6" stroke-width="2"/>
  </g>

  <g transform="translate(250, 120)">
    <rect x="0" y="0" width="300" height="400" rx="12" fill="#FFFFFF" opacity="0.98"/>

    <rect x="0" y="0" width="300" height="60" rx="12" fill="url(#blueCareer)"/>
    <text x="150" y="40" font-family="Arial, sans-serif" font-size="22" font-weight="bold" fill="#FFFFFF" text-anchor="middle">
      Professional Resume
    </text>

    <g transform="translate(30, 85)">
      <circle cx="30" cy="30" r="28" fill="#3B82F6" opacity="0.2"/>
      <text x="30" y="38" font-family="Arial, sans-serif" font-size="24" font-weight="bold" fill="#3B82F6" text-anchor="middle">
        JO
      </text>
    </g>

    <g transform="translate(90, 85)">
      <text x="0" y="20" font-family="Arial, sans-serif" font-size="16" font-weight="bold" fill="#1E293B">
        John Doe
      </text>
      <text x="0" y="40" font-family="Arial, sans-serif" font-size="12" fill="#64748B">
        Software Engineer
      </text>
      <text x="0" y="56" font-family="Arial, sans-serif" font-size="10" fill="#94A3B8">
        john.doe@email.com
      </text>
    </g>

    <line x1="30" y1="160" x2="270" y2="160" stroke="#E2E8F0" stroke-width="1"/>

    <g transform="translate(30, 175)">
      <text x="0" y="15" font-family="Arial, sans-serif" font-size="13" font-weight="bold" fill="#1E293B">
        EXPERIENCE
      </text>
      <rect x="0" y="25" width="240" height="4" rx="2" fill="#3B82F6" opacity="0.3"/>
      <rect x="0" y="25" width="180" height="4" rx="2" fill="#3B82F6"/>

      <rect x="0" y="40" width="240" height="4" rx="2" fill="#10B981" opacity="0.3"/>
      <rect x="0" y="40" width="200" height="4" rx="2" fill="#10B981"/>

      <rect x="0" y="55" width="240" height="4" rx="2" fill="#8B5CF6" opacity="0.3"/>
      <rect x="0" y="55" width="160" height="4" rx="2" fill="#8B5CF6"/>
    </g>

    <line x1="30" y1="250" x2="270" y2="250" stroke="#E2E8F0" stroke-width="1"/>

    <g transform="translate(30, 265)">
      <text x="0" y="15" font-family="Arial, sans-serif" font-size="13" font-weight="bold" fill="#1E293B">
        SKILLS
      </text>

      <g transform="translate(0, 25)">
        <rect x="0" y="0" width="60" height="20" rx="10" fill="#3B82F6" opacity="0.2"/>
        <text x="30" y="14" font-family="Arial, sans-serif" font-size="10" fill="#3B82F6" text-anchor="middle">
          React
        </text>

        <rect x="70" y="0" width="70" height="20" rx="10" fill="#10B981" opacity="0.2"/>
        <text x="105" y="14" font-family="Arial, sans-serif" font-size="10" fill="#10B981" text-anchor="middle">
          JavaScript
        </text>

        <rect x="150" y="0" width="55" height="20" rx="10" fill="#8B5CF6" opacity="0.2"/>
        <text x="177.5" y="14" font-family="Arial, sans-serif" font-size="10" fill="#8B5CF6" text-anchor="middle">
          Python
        </text>
      </g>

      <g transform="translate(0, 52)">
        <rect x="0" y="0" width="65" height="20" rx="10" fill="#F59E0B" opacity="0.2"/>
        <text x="32.5" y="14" font-family="Arial, sans-serif" font-size="10" fill="#F59E0B" text-anchor="middle">
          Node.js
        </text>

        <rect x="75" y="0" width="50" height="20" rx="10" fill="#EF4444" opacity="0.2"/>
        <text x="100" y="14" font-family="Arial, sans-serif" font-size="10" fill="#EF4444" text-anchor="middle">
          SQL
        </text>
      </g>
    </g>

    <line x1="30" y1="360" x2="270" y2="360" stroke="#E2E8F0" stroke-width="1"/>

    <g transform="translate(30, 370)">
      <text x="0" y="10" font-family="Arial, sans-serif" font-size="10" fill="#94A3B8">
        ATS-Optimized • Professional Template
      </text>
    </g>
  </g>

  <g transform="translate(80, 150)">
    <circle cx="0" cy="0" r="45" fill="url(#greenCareer)" opacity="0.9"/>
    <path d="M -15 5 L -5 15 L 15 -10" stroke="#FFFFFF" stroke-width="4" fill="none" stroke-linecap="round"/>
    <text x="0" y="70" font-family="Arial, sans-serif" font-size="12" font-weight="bold" fill="#10B981" text-anchor="middle">
      Resume
    </text>
    <text x="0" y="85" font-family="Arial, sans-serif" font-size="10" fill="#94A3B8" text-anchor="middle">
      Builder
    </text>
  </g>

  <g transform="translate(80, 320)">
    <circle cx="0" cy="0" r="45" fill="url(#purpleCareer)" opacity="0.9"/>
    <rect x="-12" y="-12" width="24" height="24" rx="3" fill="none" stroke="#FFFFFF" stroke-width="3"/>
    <path d="M -8 -2 L -3 3 L 8 -8" stroke="#FFFFFF" stroke-width="3" fill="none" stroke-linecap="round"/>
    <text x="0" y="70" font-family="Arial, sans-serif" font-size="12" font-weight="bold" fill="#8B5CF6" text-anchor="middle">
      Cover
    </text>
    <text x="0" y="85" font-family="Arial, sans-serif" font-size="10" fill="#94A3B8" text-anchor="middle">
      Letter
    </text>
  </g>

  <g transform="translate(640, 150)">
    <circle cx="0" cy="0" r="45" fill="url(#blueCareer)" opacity="0.9"/>
    <circle cx="0" cy="-5" r="10" fill="none" stroke="#FFFFFF" stroke-width="3"/>
    <path d="M -8 7 L -8 18 M 8 7 L 8 18 M -12 18 L 12 18" stroke="#FFFFFF" stroke-width="3" stroke-linecap="round"/>
    <text x="0" y="70" font-family="Arial, sans-serif" font-size="12" font-weight="bold" fill="#3B82F6" text-anchor="middle">
      Interview
    </text>
    <text x="0" y="85" font-family="Arial, sans-serif" font-size="10" fill="#94A3B8" text-anchor="middle">
      Prep
    </text>
  </g>

  <g transform="translate(640, 320)">
    <circle cx="0" cy="0" r="45" fill="#F59E0B" opacity="0.9"/>
    <path d="M -10 0 L 10 0 M 0 -10 L 0 10" stroke="#FFFFFF" stroke-width="3" stroke-linecap="round"/>
    <circle cx="0" cy="0" r="15" fill="none" stroke="#FFFFFF" stroke-width="3"/>
    <text x="0" y="70" font-family="Arial, sans-serif" font-size="12" font-weight="bold" fill="#F59E0B" text-anchor="middle">
      Resources
    </text>
    <text x="0" y="85" font-family="Arial, sans-serif" font-size="10" fill="#94A3B8" text-anchor="middle">
      & Support
    </text>
  </g>

  <g transform="translate(200, 500)">
    <path d="M 0 0 L 100 -80 L 200 -140 L 300 -180 L 400 -200" stroke="url(#greenCareer)" stroke-width="4" fill="none"/>
    <path d="M 0 0 L 100 -80 L 200 -140 L 300 -180 L 400 -200 L 400 0 L 0 0 Z" fill="url(#greenCareer)" opacity="0.2"/>

    <circle cx="400" cy="-200" r="8" fill="#10B981">
      <animate attributeName="r" values="8;12;8" dur="2s" repeatCount="indefinite"/>
    </circle>
  </g>

  <circle cx="400" cy="300" r="280" fill="none" stroke="#3B82F6" stroke-width="1" opacity="0.05">
    <animate attributeName="r" values="280;290;280" dur="4s" repeatCount="indefinite"/>
    <animate attributeName="opacity" values="0.05;0.1;0.05" dur="4s" repeatCount="indefinite"/>
  </circle>

  <text x="400" y="575" font-family="Arial, sans-serif" font-size="16" fill="#94A3B8" text-anchor="middle" opacity="0.7">
    Free Professional Resume Builder & Career Resources
  </text>
</svg>
